<svg width="16" height="16" viewBox="0 0 20 19" fill="none" xmlns="http://www.w3.org/2000/svg">
<path d="M18.9984 9.50466L16.8219 8.8031C15.4297 8.34372 14.614 7.21716 14.2312 5.80154L13.2734 1.13591C13.2484 1.04373 13.1875 0.920288 13 0.920288C12.8422 0.920288 12.7515 1.04373 12.7265 1.13591L11.7687 5.8031C11.3844 7.21873 10.5703 8.34529 9.17811 8.80466L7.00154 9.50622C6.69373 9.60622 6.68904 10.0406 6.99529 10.1453L9.18748 10.9C10.575 11.3609 11.3844 12.4859 11.7687 13.8953L12.7281 18.5093C12.7531 18.6015 12.8047 18.7672 13.0015 18.7672C13.2094 18.7672 13.25 18.6015 13.275 18.5093L14.2344 13.8953C14.6187 12.4843 15.4281 11.3594 16.8156 10.9L19.0078 10.1453C19.3109 10.039 19.3062 9.60466 18.9984 9.50466Z" fill="#FDD835"/>
<path d="M19.2047 9.69995C19.1703 9.61401 19.1031 9.53901 18.9984 9.50464L16.8219 8.80308C15.4297 8.3437 14.6141 7.21714 14.2312 5.80151L13.2734 1.13589C13.2594 1.08276 13.2094 0.985889 13.1516 0.957764L13.4609 5.64058C13.6906 7.77808 13.8875 8.78433 15.5937 9.07808C17.0594 9.3312 18.7547 9.62183 19.2047 9.69995Z" fill="#FFEE58"/>
<path d="M19.2093 9.94373L15.4343 10.8094C14.1047 11.1469 13.3718 11.9172 13.3718 13.9328L13.0015 18.7672C13.1281 18.7547 13.2312 18.6859 13.275 18.5094L14.2343 13.8953C14.6187 12.4844 15.4281 11.3594 16.8156 10.9L19.0078 10.1453C19.1109 10.1078 19.1765 10.0312 19.2093 9.94373Z" fill="#F4B400"/>
<path d="M6.53279 13.5641C5.23122 13.1344 5.11247 12.65 4.89372 11.8328L4.34841 9.92034C4.3156 9.7969 3.99372 9.7969 3.95935 9.92034L3.58904 11.6875C3.36872 12.5016 2.89997 13.1485 2.09997 13.4125L0.824974 13.9656C0.648411 14.0235 0.645286 14.2735 0.821849 14.3328L2.10622 14.7875C2.9031 15.0516 3.36872 15.6985 3.5906 16.5094L3.96091 18.2C3.99529 18.3235 4.3156 18.3235 4.34841 18.2L4.78279 16.5172C5.0031 15.7016 5.3406 15.0531 6.42341 14.7875L7.62966 14.3328C7.80622 14.2719 7.80466 14.0219 7.62654 13.9641L6.53279 13.5641Z" fill="#FDD835"/>
<path d="M4.45151 11.8047C4.58433 13.0328 4.65151 13.3734 5.64683 13.6281L7.72026 14.0328C7.69839 14.0031 7.66714 13.9781 7.62495 13.9656L6.5312 13.5641C5.38901 13.1734 5.07339 12.6766 4.85933 11.6828C4.64526 10.6891 4.41714 10.0406 4.41714 10.0406C4.33745 9.82656 4.22339 9.8375 4.22339 9.8375L4.45151 11.8047Z" fill="#FFEE58"/>
<path d="M4.48906 16.0922C4.48906 14.9344 5.12188 14.3609 6.12813 14.3609L7.69375 14.2969C7.69375 14.2969 7.60313 14.4172 7.44531 14.4547L6.42344 14.7875C5.55625 15.1359 5.16094 15.3109 4.89219 16.4969C4.89219 16.4969 4.54531 17.8766 4.47969 18.0219C4.38906 18.225 4.28125 18.2672 4.28125 18.2672L4.48906 16.0922Z" fill="#F4B400"/>
<path d="M9.33437 4.3969C9.42187 4.36721 9.41875 4.24221 9.32968 4.21721L8.12343 3.89221C7.87031 3.82346 7.67343 3.62815 7.60156 3.37659L7.12656 1.41565C7.10312 1.32034 6.96718 1.32034 6.94374 1.41721L6.49687 3.37034C6.42812 3.62971 6.225 3.82971 5.96562 3.8969L4.76718 4.20784C4.67812 4.23128 4.67187 4.35628 4.75937 4.38753L6.02343 4.82503C6.24999 4.90315 6.425 5.08753 6.49375 5.31721L6.94531 7.12815C6.96875 7.2219 7.10312 7.22346 7.12656 7.12815L7.59374 5.31096C7.66406 5.08128 7.84062 4.89846 8.06875 4.8219L9.33437 4.3969Z" fill="#F4B400" stroke="#F4B400" stroke-width="0.15625" stroke-miterlimit="10"/>
</svg>
